<?xml version="1.0" encoding="UTF-8"?>
<svg version="1.1" xmlns="http://www.w3.org/2000/svg" width="484" height="515">
<path d="M0 0 C0.7013205 -0.01504074 1.40264099 -0.03008148 2.12521362 -0.045578 C4.4491298 -0.08873681 6.7719061 -0.10136514 9.09619141 -0.11010742 C10.71986304 -0.12551082 12.34353049 -0.14136137 13.9671936 -0.15763855 C17.37861526 -0.18613404 20.78963743 -0.19750998 24.20117188 -0.19921875 C28.54054966 -0.20436761 32.87673115 -0.26904462 37.21527672 -0.34950733 C40.57520784 -0.4019387 43.93439451 -0.41277986 47.29469681 -0.41272545 C48.89174815 -0.41922949 50.48881712 -0.44023753 52.08546066 -0.47690773 C64.2524451 -0.73215009 70.69421495 1.73921475 80.07275391 9.59692383 C81.68399652 10.76224207 83.30432192 11.91529411 84.93994141 13.04614258 C86.13441895 13.88411377 86.13441895 13.88411377 87.35302734 14.73901367 C90.66580872 17.00205373 94.02397549 19.18846281 97.39306641 21.36645508 C98.02887634 21.77797821 98.66468628 22.18950134 99.31976318 22.61349487 C101.95453809 24.31740106 104.59005143 26.0200187 107.23193359 27.71289062 C109.18560048 28.96615518 111.13347771 30.22800291 113.08056641 31.49145508 C113.98501999 32.06643486 113.98501999 32.06643486 114.90774536 32.6530304 C116.33173262 33.58183771 117.7081006 34.58294942 119.07275391 35.59692383 C119.07275391 36.25692383 119.07275391 36.91692383 119.07275391 37.59692383 C120.28125 37.91137451 120.28125 37.91137451 121.51416016 38.23217773 C126.16514212 40.0158625 129.92162474 42.61867542 134.01025391 45.43286133 C134.87484726 46.01948547 135.73944061 46.60610962 136.63023376 47.21051025 C139.44875675 49.12467254 142.2606563 51.04833759 145.07275391 52.97192383 C147.02736167 54.30134868 148.98252544 55.6299564 150.93823242 56.95776367 C153.8823232 58.9566519 156.82612998 60.95593808 159.76820374 62.95779419 C167.81444142 68.43159155 175.90123126 73.84175169 184.01025391 79.22192383 C191.37557623 84.11156906 198.72251759 89.02521539 206.02587891 94.00708008 C206.6787941 94.45210876 207.33170929 94.89713745 208.00440979 95.35565186 C211.13413896 97.48976167 214.26090758 99.62800949 217.38305664 101.77319336 C218.49178954 102.53094911 219.60059099 103.28860455 220.70947266 104.04614258 C221.6758667 104.70960693 222.64226074 105.37307129 223.63793945 106.05664062 C226.06261516 107.72684261 226.06261516 107.72684261 229.07275391 108.59692383 C229.07275391 109.25692383 229.07275391 109.91692383 229.07275391 110.59692383 C229.71212891 110.88567383 230.35150391 111.17442383 231.01025391 111.47192383 C233.07275391 112.59692383 233.07275391 112.59692383 234.07275391 114.59692383 C234.17535273 116.08053771 234.21651853 117.56861765 234.22665405 119.05574036 C234.23525452 119.99364914 234.24385498 120.93155792 234.25271606 121.89788818 C234.25910599 123.44624359 234.25910599 123.44624359 234.265625 125.02587891 C234.27380249 126.1105394 234.28197998 127.19519989 234.29040527 128.31272888 C234.31528521 131.91396527 234.33178109 135.5151622 234.34619141 139.11645508 C234.35151508 140.34402716 234.35683876 141.57159924 234.36232376 142.83637047 C234.38630586 148.662143 234.40554681 154.4878992 234.41834581 160.31370717 C234.43341018 167.03721111 234.46850478 173.76022973 234.520347 180.48354799 C234.56372392 186.30771418 234.57969191 192.13171723 234.58607864 197.95602989 C234.59280753 200.43321159 234.60807171 202.91038515 234.63196945 205.38746071 C234.66348912 208.85197812 234.66367701 212.31516278 234.65625 215.77978516 C234.67265533 216.8059494 234.68906067 217.83211365 234.70596313 218.88937378 C234.6446966 225.85948072 234.6446966 225.85948072 231.71089172 229.64222717 C230.84030624 230.28727707 229.96972076 230.93232697 229.07275391 231.59692383 C228.15083252 232.28737793 227.22891113 232.97783203 226.27905273 233.68920898 C224.76347778 234.71473877 224.76347778 234.71473877 223.21728516 235.76098633 C222.65733353 236.14211578 222.0973819 236.52324524 221.52046204 236.91592407 C219.70791369 238.14795352 217.89037534 239.37239448 216.07275391 240.59692383 C214.83848982 241.4345842 213.60460593 242.27280505 212.37109375 243.11157227 C209.17014946 245.28641958 205.96501584 247.45499838 202.75845337 249.62155151 C188.98145263 258.93197358 175.22773042 268.26902998 161.62060547 277.82666016 C154.65826114 282.7150177 147.69065943 287.59344506 140.63525391 292.34692383 C140.03898193 292.75305908 139.44270996 293.15919434 138.82836914 293.57763672 C135.68261886 295.67950166 132.64499411 297.34163194 129.07275391 298.59692383 C129.07275391 299.25692383 129.07275391 299.91692383 129.07275391 300.59692383 C127.09275391 301.25692383 125.11275391 301.91692383 123.07275391 302.59692383 C123.07275391 303.25692383 123.07275391 303.91692383 123.07275391 304.59692383 C121.04003906 306.07080078 121.04003906 306.07080078 118.23681641 307.77270508 C112.53486583 311.30018298 106.97936485 314.9967715 101.44775391 318.78442383 C100.48538818 319.44168457 99.52302246 320.09894531 98.53149414 320.77612305 C93.67438994 324.10133717 88.83705598 327.45044584 84.04199219 330.86450195 C81.30765179 332.81110024 78.56281053 334.74251375 75.81542969 336.6706543 C73.69685456 338.15859784 71.5812516 339.65050925 69.46679688 341.14428711 C66.04614965 343.55705964 62.61082122 345.94787862 59.16793823 348.32879639 C57.78345407 349.29066552 56.40323988 350.2587133 55.02761841 351.23321533 C40.96980461 361.17955768 40.96980461 361.17955768 33.07275391 360.59692383 C30.06103516 359.51489258 30.06103516 359.51489258 27.38525391 357.78442383 C26.36302734 357.1321582 25.34080078 356.47989258 24.28759766 355.80786133 C20.38537845 353.1241966 16.51083296 350.40692092 12.67822266 347.625 C5.88082321 342.69196239 -1.12570395 338.08585924 -8.12939453 333.45288086 C-11.39252903 331.28827803 -14.64857643 329.11322794 -17.90380859 326.93676758 C-19.12750878 326.11903829 -20.35122302 325.30133002 -21.57495117 324.48364258 C-23.39667903 323.26635634 -25.21823509 322.04881825 -27.03915405 320.83032227 C-28.74720926 319.6876149 -30.45626297 318.54641521 -32.16552734 317.40551758 C-33.15593018 316.74350342 -34.14633301 316.08148926 -35.16674805 315.39941406 C-37.00241274 314.20080148 -38.87777416 313.0608471 -40.78735352 311.98388672 C-41.49351807 311.52618896 -42.19968262 311.06849121 -42.92724609 310.59692383 C-42.92724609 309.93692383 -42.92724609 309.27692383 -42.92724609 308.59692383 C-44.90724609 307.93692383 -46.88724609 307.27692383 -48.92724609 306.59692383 C-48.92724609 305.93692383 -48.92724609 305.27692383 -48.92724609 304.59692383 C-49.79349609 304.34942383 -50.65974609 304.10192383 -51.55224609 303.84692383 C-55.13784673 302.51892359 -57.89052597 300.91061535 -60.92724609 298.59692383 C-60.92724609 297.93692383 -60.92724609 297.27692383 -60.92724609 296.59692383 C-62.90724609 295.93692383 -64.88724609 295.27692383 -66.92724609 294.59692383 C-66.92724609 293.93692383 -66.92724609 293.27692383 -66.92724609 292.59692383 C-67.71099609 292.41129883 -68.49474609 292.22567383 -69.30224609 292.03442383 C-74.42851606 290.00159263 -78.4828472 286.82418444 -82.92724609 283.59692383 C-88.51061975 279.66204304 -94.08883425 275.73457168 -99.86865234 272.09301758 C-100.51479492 271.6855127 -101.1609375 271.27800781 -101.82666016 270.8581543 C-103.08358147 270.07057343 -104.34456247 269.2894278 -105.60986328 268.51538086 C-107.08257813 267.59419898 -108.51028499 266.60175532 -109.92724609 265.59692383 C-109.92724609 264.93692383 -109.92724609 264.27692383 -109.92724609 263.59692383 C-110.71099609 263.41129883 -111.49474609 263.22567383 -112.30224609 263.03442383 C-115.44719798 261.78728774 -117.40843968 260.65407598 -120.09521484 258.70239258 C-124.66727079 255.4480416 -129.31894972 252.34386608 -134.01708984 249.27661133 C-135.47494289 248.31984021 -136.93262285 247.3628053 -138.39013672 246.40551758 C-140.64042775 244.92803133 -142.89258486 243.45386802 -145.15112305 241.98901367 C-147.36292979 240.55284967 -149.56560525 239.10353283 -151.76708984 237.65161133 C-152.44207016 237.21815399 -153.11705048 236.78469666 -153.81248474 236.33810425 C-154.44066605 235.9206192 -155.06884735 235.50313416 -155.71606445 235.07299805 C-156.26548203 234.7143869 -156.8148996 234.35577576 -157.38096619 233.98629761 C-160.33310974 231.3337178 -161.79765261 228.60211584 -162.30476952 224.66866302 C-162.30590059 223.58098885 -162.30703167 222.49331467 -162.30819702 221.37268066 C-162.31665649 220.11932419 -162.32511597 218.86596771 -162.33383179 217.57463074 C-162.32799941 216.19338859 -162.32185493 214.81214772 -162.31542969 213.4309082 C-162.31949661 211.97031766 -162.32483917 210.5097302 -162.33135986 209.04914856 C-162.34502504 205.08841456 -162.33973819 201.12791525 -162.33022261 197.1671772 C-162.32262186 193.02017718 -162.32967278 188.87319711 -162.3343811 184.72619629 C-162.33983745 177.76233313 -162.33265024 170.79856545 -162.31835938 163.8347168 C-162.30203306 155.78611458 -162.30732166 147.73774035 -162.32383859 139.68914366 C-162.33745693 132.77605092 -162.33937143 125.86302677 -162.33152258 118.94992495 C-162.32684797 114.82222539 -162.32621537 110.69463296 -162.33613205 106.56694031 C-162.34480453 102.68612189 -162.33877486 98.80559714 -162.32144928 94.92481041 C-162.31748591 93.50141067 -162.31861595 92.07798618 -162.32523727 90.65459633 C-162.33344791 88.71012892 -162.32132093 86.76560744 -162.30819702 84.82116699 C-162.30706594 83.73349281 -162.30593487 82.64581863 -162.30476952 81.52518463 C-161.86946739 78.14876326 -161.03128561 76.26352797 -158.92724609 73.59692383 C-153.69931591 72.57183948 -150.84702311 73.33058424 -146.38818359 76.17504883 C-144.68033642 77.38145526 -142.98581852 78.60686643 -141.30224609 79.84692383 C-139.35069487 81.23065651 -137.39747672 82.61204029 -135.44287109 83.99145508 C-134.39679688 84.7360498 -133.35072266 85.48064453 -132.27294922 86.24780273 C-126.91827058 90.03141342 -121.44204422 93.63578041 -115.97747803 97.25784302 C-114.03625278 98.54502866 -112.09693409 99.83503761 -110.15820312 101.12597656 C-105.37239005 104.31266336 -100.58426336 107.49586247 -95.79541016 110.67797852 C-81.43132452 120.2236405 -67.12593913 129.85279182 -52.85009766 139.52978516 C-44.89786637 144.91926409 -36.9287403 150.2807332 -28.92724609 155.59692383 C-27.11455608 156.8049721 -25.30203428 158.01327284 -23.48974609 159.22192383 C-22.51134766 159.87418945 -21.53294922 160.52645508 -20.52490234 161.19848633 C-6.32568359 170.66463216 7.87353516 180.13077799 22.07275391 189.59692383 C23.01594482 190.2255835 23.95913574 190.85424316 24.9309082 191.50195312 C26.84833062 192.78048306 28.76534599 194.05962408 30.68164062 195.33984375 C35.85353304 198.7932365 41.03337192 202.23375859 46.22589111 205.65603638 C49.14190372 207.57903447 52.05475278 209.50679462 54.96728516 211.43505859 C56.47084323 212.42892759 57.97575753 213.4207475 59.48193359 214.41064453 C61.6850909 215.85927969 63.88325595 217.31522156 66.08056641 218.77270508 C66.7544339 219.21334793 67.42830139 219.65399078 68.12258911 220.10798645 C71.11089933 222.09958827 73.05592815 223.5716852 75.07275391 226.59692383 C75.2026847 233.33964841 75.2026847 233.33964841 72.70800781 236.11547852 C70.82945027 237.53717508 68.90735337 238.76313339 66.88525391 239.97192383 C65.42327354 240.90649235 63.9623562 241.84272565 62.50244141 242.78051758 C61.76219727 243.24570801 61.02195312 243.71089844 60.25927734 244.19018555 C56.34045017 246.71143188 52.61084925 249.49314027 48.85522461 252.2487793 C37.44932258 260.50059848 37.44932258 260.50059848 31.07275391 259.59692383 C27.75365086 257.9119191 24.75988271 255.80581057 21.71337891 253.67504883 C20.35850372 252.752211 20.35850372 252.752211 18.97625732 251.81072998 C16.08266352 249.83570577 13.20260055 247.84192565 10.32275391 245.84692383 C8.43171536 244.55005433 6.5397959 243.25446836 4.64697266 241.96020508 C0.89823065 239.395578 -2.84629502 236.82495166 -6.58862305 234.25097656 C-12.09385378 230.47274663 -17.64259211 226.76304363 -23.20518494 223.07002258 C-28.84593916 219.32363641 -34.46331725 215.5438152 -40.07177734 211.74926758 C-50.15215605 204.9299751 -60.24235145 198.1254445 -70.34228516 191.33514404 C-72.00865489 190.21461741 -73.67469576 189.09360148 -75.34033203 187.97198486 C-79.5173227 185.15965118 -83.70023494 182.35678684 -87.89633179 179.57302856 C-89.11262821 178.7640369 -90.3265774 177.9515036 -91.53799438 177.13522339 C-93.18853011 176.02410993 -94.84867205 174.92730584 -96.50927734 173.83129883 C-97.41911377 173.22511719 -98.3289502 172.61893555 -99.26635742 171.99438477 C-102.24767983 170.42863658 -104.56939285 169.8006568 -107.92724609 169.59692383 C-108.91724609 170.25692383 -109.90724609 170.91692383 -110.92724609 171.59692383 C-111.65354843 175.74874502 -111.65493821 179.91567601 -111.70288086 184.12573242 C-111.73931603 186.19746989 -111.8450008 188.25830848 -111.95263672 190.32739258 C-112.14836864 197.68243293 -112.14836864 197.68243293 -109.03027344 204.09594727 C-106.44208674 206.22040224 -103.82268664 207.91815927 -100.92724609 209.59692383 C-99.31949634 210.63577497 -97.71275247 211.67618423 -96.10693359 212.71801758 C-95.18879883 213.28762207 -94.27066406 213.85722656 -93.32470703 214.4440918 C-88.87343325 217.23208492 -84.53641021 220.19164557 -80.18505859 223.13208008 C-78.84214752 224.03898087 -78.84214752 224.03898087 -77.47210693 224.96420288 C-74.6647125 226.86146782 -71.85838958 228.76030928 -69.05224609 230.65942383 C-65.36794591 233.15119128 -61.68301388 235.64202141 -57.99755859 238.13208008 C-57.07833618 238.75323196 -56.15911377 239.37438385 -55.21203613 240.01435852 C-48.09279928 244.82059289 -40.94857803 249.58846715 -33.79733276 254.34689331 C-27.53823537 258.51486936 -21.29803294 262.71005013 -15.06787109 266.92114258 C-14.16990814 267.52797379 -13.27194519 268.13480499 -12.34677124 268.76002502 C-8.70631715 271.22087136 -5.06635883 273.68244509 -1.42773438 276.14599609 C3.89245634 279.74717407 9.22309007 283.33198707 14.56323242 286.90350342 C17.03675765 288.57263362 19.48830557 290.27049559 21.93798828 291.97436523 C23.44607649 293.00144651 24.95452066 294.02800537 26.46337891 295.05395508 C27.13375183 295.53193039 27.80412476 296.0099057 28.49481201 296.50236511 C32.01339927 298.86155883 33.52589922 299.61382572 37.90380859 299.47851562 C41.01300569 298.61354562 42.65177849 297.65923622 45.07275391 295.59692383 C45.73275391 295.59692383 46.39275391 295.59692383 47.07275391 295.59692383 C47.07275391 294.93692383 47.07275391 294.27692383 47.07275391 293.59692383 C48.73071289 292.27514648 48.73071289 292.27514648 51.06884766 290.76098633 C51.92937744 290.19718262 52.78990723 289.63337891 53.67651367 289.05249023 C54.61164795 288.44840332 55.54678223 287.84431641 56.51025391 287.22192383 C58.44641286 285.95301573 60.38129185 284.68215264 62.31494141 283.40942383 C63.28657227 282.77004883 64.25820313 282.13067383 65.25927734 281.47192383 C69.2724727 278.79738892 73.20987885 276.023173 77.13525391 273.22192383 C81.79895123 269.89874219 86.47909547 266.62572227 91.26025391 263.47192383 C95.32821974 260.78728509 99.30877422 258.01273744 103.26025391 255.15942383 C109.58861441 250.60159673 115.99902156 246.16384619 122.43569946 241.76071167 C123.56184855 240.9895692 124.68684522 240.21674088 125.81063843 239.44216919 C127.40640455 238.34307827 129.00708716 237.25113628 130.60791016 236.15942383 C132.00601929 235.20229492 132.00601929 235.20229492 133.43237305 234.22583008 C135.92765116 232.68644075 138.3201886 231.5882334 141.07275391 230.59692383 C141.07275391 229.93692383 141.07275391 229.27692383 141.07275391 228.59692383 C142.73071289 227.27514648 142.73071289 227.27514648 145.06884766 225.76098633 C145.93010254 225.19661865 146.79135742 224.63225098 147.67871094 224.05078125 C148.61312012 223.4472583 149.5475293 222.84373535 150.51025391 222.22192383 C158.40483325 217.05469745 166.18543194 211.77512512 173.82836914 206.24194336 C176.55810581 204.28280868 178.86450084 202.66634152 182.07275391 201.59692383 C183.1011004 198.51188434 183.19952203 196.39560124 183.20214844 193.16333008 C183.2053006 192.05207764 183.20845276 190.9408252 183.21170044 189.79589844 C183.20967621 188.59586182 183.20765198 187.3958252 183.20556641 186.15942383 C183.20652313 184.92780518 183.20747986 183.69618652 183.20846558 182.42724609 C183.20932106 179.15358727 183.20529245 175.87997578 183.19970703 172.60632324 C183.19775587 170.59894296 183.19970007 168.59160639 183.203125 166.58422852 C183.20929024 162.73427287 183.20855707 158.88438214 183.20556641 155.03442383 C183.20860275 153.2343689 183.20860275 153.2343689 183.21170044 151.39794922 C183.20854828 150.28669678 183.20539612 149.17544434 183.20214844 148.03051758 C183.20135284 147.05139404 183.20055725 146.07227051 183.19973755 145.06347656 C183.17582718 142.46108733 183.17582718 142.46108733 182.07275391 139.59692383 C180.43190447 138.86902592 178.76017885 138.20914868 177.07275391 137.59692383 C175.65266153 136.75042749 174.25851122 135.85914705 172.89111328 134.92993164 C172.09838013 134.39466858 171.30564697 133.85940552 170.4888916 133.30792236 C169.64000366 132.7278241 168.79111572 132.14772583 167.91650391 131.55004883 C166.57017883 130.63857086 166.57017883 130.63857086 165.19665527 129.7086792 C162.31898832 127.75918955 159.44574281 125.80329936 156.57275391 123.84692383 C153.76942164 121.94388223 150.96517402 120.04219581 148.16078186 118.14071655 C146.27846747 116.86439187 144.39650322 115.58755065 142.51487732 114.31021118 C135.31444372 109.42591248 128.08210075 104.59113498 120.83778381 99.77224731 C112.25640259 94.06118825 103.71359707 88.29370908 95.17330933 82.52145386 C80.81314015 72.81772953 66.43444594 63.14273673 52.01025391 53.53442383 C51.3024881 53.06261688 50.59472229 52.59080994 49.86550903 52.10470581 C41.76457333 46.70458075 33.65483491 41.31803319 25.53352356 35.94859314 C21.62477512 33.36307312 17.71897506 30.77311948 13.81350708 28.18264771 C11.91411832 26.92452641 10.01331477 25.66853823 8.11105347 24.4147644 C5.46720536 22.67207873 2.82812088 20.92239353 0.18994141 19.17114258 C-0.60404556 18.65042175 -1.39803253 18.12970093 -2.21607971 17.59320068 C-2.94205856 17.10933899 -3.66803741 16.62547729 -4.41601562 16.12695312 C-5.36566696 15.49940376 -5.36566696 15.49940376 -6.33450317 14.85917664 C-7.92724609 13.59692383 -7.92724609 13.59692383 -9.92724609 10.59692383 C-10.26739408 7.39953273 -10.29928241 5.33447108 -8.84066772 2.44282532 C-6.02006779 -0.27824229 -3.87185321 0.05573543 0 0 Z " fill="#2EAD9F" transform="translate(207.92724609375,135.403076171875)"/>
<path d="M0 0 C1.17892429 0.00043474 2.35784858 0.00086947 3.57249784 0.00131738 C4.23183795 -0.00389719 4.89117806 -0.00911176 5.57049817 -0.01448435 C7.79574719 -0.02714927 10.01988109 -0.01112112 12.24509764 0.004619 C13.85010034 0.00144454 15.45510038 -0.00348094 17.06009293 -0.01001382 C21.4828646 -0.02288152 25.90527201 -0.01067366 30.32801986 0.00551474 C35.09290739 0.01863824 39.85775318 0.00877847 44.62264585 0.00175035 C53.96192517 -0.00834818 63.30106318 0.00296774 72.64032495 0.02145095 C83.50755931 0.04218751 94.37476285 0.04207941 105.24201328 0.04110579 C124.62698243 0.04010382 144.01188567 0.05844729 163.39683104 0.08747423 C182.22334065 0.11565053 201.04979223 0.12981583 219.87632322 0.12848985 C221.03578012 0.12840994 222.19523702 0.12833003 223.38982898 0.12824769 C224.54724619 0.12816698 225.7046634 0.12808628 226.89715385 0.12800312 C248.30621318 0.12662454 269.71524776 0.13839724 291.12429908 0.15630955 C298.70615644 0.16235074 306.28800926 0.16446968 313.86986876 0.16537416 C323.10481942 0.16673639 332.33972841 0.17563712 341.57466137 0.19403978 C346.28988889 0.20329392 351.00506298 0.2093601 355.7203002 0.20685136 C360.03187051 0.20466857 364.34332246 0.21165314 368.65486807 0.22614841 C370.21942016 0.22978844 371.78398441 0.23002274 373.34853703 0.22661383 C375.46605249 0.22250904 377.58317527 0.2305666 379.70065641 0.24182642 C380.8795807 0.24323527 382.05850499 0.24464411 383.27315426 0.24609566 C386.13657713 0.49909532 386.13657713 0.49909532 389.13657713 2.49909532 C390.32661879 5.62234652 390.27159184 8.71908832 390.29047728 12.03362596 C390.29907774 13.15939546 390.3076782 14.28516496 390.31653929 15.44504869 C390.32292921 17.29119264 390.32292921 17.29119264 390.32944822 19.17463243 C390.33762571 20.47416353 390.3458032 21.77369462 390.3542285 23.11260545 C390.38038237 27.41719573 390.39574444 31.72179544 390.41001463 36.02643907 C390.41537609 37.5097263 390.4207536 38.99301348 390.42614698 40.4763006 C390.44776147 46.6451423 390.46649938 52.81398144 390.47776937 58.98285139 C390.49402049 67.81907387 390.5272422 76.65485756 390.58417022 85.49091464 C390.62285666 91.70758258 390.64240019 97.92413304 390.64768994 104.1409182 C390.65134379 107.85296264 390.66336853 111.56453836 390.69579268 115.27645242 C390.73143681 119.41595588 390.72750587 123.55451347 390.72007322 127.69416368 C390.73647856 128.92290208 390.75288389 130.15164049 390.76978636 131.41761339 C390.70166267 140.66012601 390.70166267 140.66012601 387.78837156 143.7690233 C384.5338064 145.89235234 382.95494268 146.12030514 379.13657713 145.49909532 C376.74644041 144.37433946 376.74644041 144.37433946 374.33188963 142.72175157 C373.37572752 142.07867052 372.41956541 141.43558946 371.43442869 140.7730211 C370.90933714 140.41057298 370.38424559 140.04812486 369.84324217 139.67469347 C368.01038462 138.41217043 366.16436878 137.17083345 364.31528807 135.93220079 C360.66109081 133.48068096 357.01777676 131.01346601 353.37702513 128.54203355 C349.29825578 125.77375783 345.21571052 123.01106747 341.13267088 120.24909532 C340.30181471 119.68705904 339.47095854 119.12502275 338.61492491 118.54595506 C330.12483768 112.80751831 321.60415388 107.11536575 313.07407713 101.43659532 C312.4006024 100.9882332 311.72712767 100.53987108 311.03324461 100.07792222 C305.79391692 96.59059491 300.55443999 93.10348528 295.31016111 89.62360704 C288.78569888 85.287124 282.29280506 80.90513326 275.80454588 76.51472032 C273.91587791 75.23737079 272.02720598 73.96002712 270.13853025 72.68268907 C267.21719602 70.70687651 264.29637833 68.73032044 261.37705564 66.75153673 C258.52110986 64.81611815 255.66302102 62.8839006 252.80454588 60.95222032 C251.93774702 60.3636223 251.07094816 59.77502428 250.17788267 59.16858995 C249.35625135 58.6141118 248.53462004 58.05963365 247.6880908 57.48835313 C246.97593916 57.00618333 246.26378752 56.52401353 245.53005552 56.02723253 C244.74020765 55.52294725 243.95035978 55.01866197 243.13657713 54.49909532 C242.09544012 53.81777606 241.05430311 53.13645681 239.9816165 52.43449152 C236.12638755 50.25395196 232.59310745 49.94079783 228.22246885 50.004619 C227.07229435 49.99737576 227.07229435 49.99737576 225.898884 49.98998618 C223.34535624 49.97876981 220.79284215 49.99599194 218.23936033 50.01325548 C216.40247404 50.0111083 214.56558908 50.00722864 212.7287097 50.00175035 C207.7516072 49.99207379 202.77486454 50.00733782 197.79780555 50.02765644 C192.58799504 50.04524562 187.37819533 50.04170204 182.16836119 50.04093492 C173.42324898 50.04280658 164.67827578 50.06015493 155.93320799 50.08747423 C145.81920307 50.11895303 135.7053502 50.12946932 125.59129983 50.12800312 C115.86136232 50.12678306 106.13147435 50.13698751 96.40155172 50.15358675 C92.26008992 50.1606517 88.11864564 50.16431313 83.9771781 50.16537416 C79.10407005 50.16738121 74.23108995 50.17957585 69.35802412 50.19970644 C67.56815515 50.20555399 65.77827146 50.20800766 63.98839331 50.20685136 C61.5487038 50.20587157 59.10937393 50.21716481 56.66973448 50.23166978 C55.95855335 50.22857258 55.24737222 50.22547538 54.51464015 50.22228432 C50.88973049 50.25797156 48.22135837 50.51553123 45.13657713 52.49909532 C42.43943741 62.5881762 40.08568949 74.77231268 45.13657713 84.49909532 C54.40186026 95.70646117 69.57793386 102.67148463 82.06675291 109.63630235 C87.9645672 112.93154744 93.51941456 116.59073673 99.07407713 120.43659532 C100.88342229 121.64640209 102.69472925 122.85327844 104.50767088 124.05768907 C114.85702027 130.97901524 125.16800002 137.95762988 135.48740721 144.92347276 C148.83669477 153.9341554 162.20271841 162.91747621 175.61997557 171.82673204 C180.46278387 175.04493508 185.29911647 178.27286212 190.13657713 181.49909532 C191.55061613 182.4418389 192.96467533 183.38455219 194.37876463 184.32722032 C196.81626463 185.95222032 199.25376463 187.57722032 201.69126463 189.20222032 C202.55872313 189.77988145 202.55872313 189.77988145 203.44370604 190.36921251 C205.07853757 191.46035764 206.70920105 192.55773971 208.33970213 193.65534532 C210.53429386 195.10205942 212.72018719 196.46591695 215.01157713 197.74909532 C216.04282713 198.32659532 217.07407713 198.90409532 218.13657713 199.49909532 C218.13657713 200.15909532 218.13657713 200.81909532 218.13657713 201.49909532 C218.75532713 201.64347032 219.37407713 201.78784532 220.01157713 201.93659532 C222.13657713 202.49909532 222.13657713 202.49909532 224.13657713 203.49909532 C224.13657713 204.15909532 224.13657713 204.81909532 224.13657713 205.49909532 C224.81720213 205.74659532 225.49782713 205.99409532 226.19907713 206.24909532 C229.70522796 207.7410744 232.85278081 209.56745043 236.13657713 211.49909532 C236.13657713 212.15909532 236.13657713 212.81909532 236.13657713 213.49909532 C239.10657713 214.48909532 239.10657713 214.48909532 242.13657713 215.49909532 C242.13657713 216.15909532 242.13657713 216.81909532 242.13657713 217.49909532 C242.86546141 217.76770372 243.59434568 218.03631212 244.34531736 218.31306016 C247.08546026 219.47737523 249.33386937 220.81162262 251.79673338 222.47565782 C252.67394041 223.06475938 253.55114744 223.65386095 254.4549365 224.26081407 C255.36050291 224.87569688 256.26606932 225.4905797 257.19907713 226.12409532 C258.98160443 227.32465296 260.76415673 228.52517347 262.54673338 229.72565782 C263.9160803 230.65112413 263.9160803 230.65112413 265.3130908 231.59528673 C270.24024354 234.91754674 275.18995942 238.20592086 280.13657713 241.49909532 C282.46102811 243.04822621 284.78512508 244.59788788 287.10923338 246.14753282 C288.28696149 246.93269847 289.46469587 247.71785471 290.6424365 248.50300157 C310.13657713 261.49909532 310.13657713 261.49909532 311.01157713 264.31159532 C311.1651156 268.2268262 310.43738259 269.36508123 308.13657713 272.49909532 C306.08749221 274.13527177 304.1134766 275.57799434 301.92954588 277.00300157 C301.32653151 277.40816499 300.72351713 277.81332841 300.1022296 278.23076952 C298.18246844 279.51743692 296.25360619 280.78963549 294.32407713 282.06159532 C293.03894283 282.91937751 291.75443097 283.77809304 290.4705615 284.6377672 C288.09763095 286.22435731 285.7214983 287.80584118 283.34043455 289.38019884 C281.19407336 290.79971181 279.06992275 292.25335767 276.96885252 293.73908556 C273.31546748 296.00934267 270.27424704 296.35461354 266.13657713 295.49909532 C263.47039204 294.31099595 261.22614285 292.73247806 258.88657713 290.99909532 C257.56900524 290.07181809 256.2512953 289.14473698 254.93345213 288.21784532 C254.28956541 287.75507188 253.64567869 287.29229845 252.98228025 286.81550157 C250.4085014 284.97981168 247.77553251 283.23937941 245.13657713 281.49909532 C241.91782713 279.35326199 238.69907713 277.20742865 235.48032713 275.06159532 C234.53528318 274.43160631 234.53528318 274.43160631 233.57114744 273.78889024 C232.27872961 272.92722399 230.98641231 272.06540694 229.69419432 271.20344102 C226.85955438 269.31283871 224.02367571 267.42427573 221.18345213 265.54206407 C216.53330599 262.45712075 211.90555917 259.34608891 207.30845213 256.18268907 C206.45605955 255.59656847 205.60366697 255.01044786 204.72544432 254.40656602 C203.02656702 253.23686561 201.3292459 252.06490111 199.63364744 250.89045274 C198.45947264 250.08184801 198.45947264 250.08184801 197.26157713 249.25690782 C196.56290525 248.77367052 195.86423338 248.29043321 195.14438963 247.79255235 C193.19587818 246.53729777 191.22861181 245.49292906 189.13657713 244.49909532 C189.13657713 243.83909532 189.13657713 243.17909532 189.13657713 242.49909532 C188.41341307 242.23999376 187.690249 241.9808922 186.94517088 241.71393907 C184.02584615 240.45119917 181.75833508 238.94161893 179.19907713 237.06159532 C175.60713053 234.4844139 172.16686371 232.30211827 168.13657713 230.49909532 C168.13657713 229.83909532 168.13657713 229.17909532 168.13657713 228.49909532 C165.16657713 227.50909532 165.16657713 227.50909532 162.13657713 226.49909532 C162.13657713 225.83909532 162.13657713 225.17909532 162.13657713 224.49909532 C159.16657713 223.50909532 159.16657713 223.50909532 156.13657713 222.49909532 C156.13657713 221.83909532 156.13657713 221.17909532 156.13657713 220.49909532 C155.45595213 220.25159532 154.77532713 220.00409532 154.07407713 219.74909532 C150.5679263 218.25711624 147.42037345 216.43074021 144.13657713 214.49909532 C144.13657713 213.83909532 144.13657713 213.17909532 144.13657713 212.49909532 C141.16657713 211.50909532 141.16657713 211.50909532 138.13657713 210.49909532 C138.13657713 209.83909532 138.13657713 209.17909532 138.13657713 208.49909532 C137.45724119 208.26448595 136.77790525 208.02987657 136.07798338 207.78815782 C132.46206001 206.20349021 129.31835364 204.09476319 126.07407713 201.87409532 C124.73296641 200.96779336 123.39182014 200.061544 122.05063963 199.15534532 C121.05725584 198.4805211 121.05725584 198.4805211 120.04380369 197.79206407 C117.35619378 195.97004895 114.65292236 194.1719027 111.94907713 192.37409532 C109.10233397 190.47668847 106.25596604 188.57871999 103.40977049 186.68049181 C98.14922961 183.17239748 92.88669213 179.6673502 87.62095213 176.16706407 C67.04782039 162.48387657 67.04782039 162.48387657 59.13657713 156.99909532 C52.8245483 152.62575497 46.4497548 148.34894237 40.05869627 144.09220445 C38.3294383 142.94016695 36.60112201 141.78672724 34.87290525 140.63312852 C29.40080314 136.98370496 23.91963249 133.34981223 18.40862608 129.75933397 C15.9139968 128.13270876 13.42444548 126.49840525 10.9353137 124.86338365 C9.74576807 124.08514661 8.55371866 123.31072191 7.35908079 122.54032457 C5.69537555 121.46712827 4.04076614 120.37987112 2.38657713 119.29206407 C1.44298338 118.67871202 0.49938963 118.06535997 -0.47279787 117.43342149 C-3.68049618 114.83797688 -5.59406102 112.58377688 -6.13937426 108.36341512 C-6.25465164 105.6594945 -6.26860369 102.97083964 -6.25160646 100.26447618 C-6.2594919 98.72220102 -6.2594919 98.72220102 -6.26753664 97.14876878 C-6.28072941 93.75367056 -6.27200148 90.35904198 -6.26186037 86.96393907 C-6.26388115 84.60412065 -6.26679262 82.24430284 -6.27055788 79.88448656 C-6.27498013 74.94077673 -6.26855258 69.99722959 -6.25453615 65.05353868 C-6.23743516 58.71243139 -6.24729215 52.37170476 -6.26525354 46.0306114 C-6.27608592 41.1587798 -6.27264767 36.2870387 -6.26487017 31.41520441 C-6.26286714 29.07678817 -6.265331 26.73836375 -6.27230883 24.39995706 C-6.27991513 21.1345227 -6.26833044 17.86970805 -6.25160646 14.60431993 C-6.25767916 13.63537797 -6.26375185 12.66643602 -6.27000856 11.66813219 C-6.26154909 10.777959 -6.25308962 9.88778581 -6.2443738 8.97063768 C-6.24324272 8.19913849 -6.24211164 7.42763931 -6.24094629 6.63276136 C-5.53070226 2.61864332 -4.07088422 0.70955613 0 0 Z " fill="#854B93" transform="translate(51.863422870635986,44.5009046792984)"/>
<path d="M0 0 C3 3 3 3 3.36914349 5.46187115 C3.36637811 6.44726785 3.36361273 7.43266455 3.36076355 8.44792175 C3.36488754 9.57954239 3.36901154 10.71116302 3.3732605 11.8770752 C3.36247467 13.11928833 3.35168884 14.36150146 3.34057617 15.64135742 C3.34101425 16.94877396 3.34145233 18.25619049 3.34190369 19.60322571 C3.34276546 23.18983387 3.32511049 26.77614187 3.30418181 30.3626802 C3.28544525 34.11028639 3.28366696 37.85789924 3.28010559 41.60554504 C3.27077622 48.70287145 3.24615044 55.80005944 3.21605712 62.89732486 C3.18254081 70.9770277 3.16603409 79.0567371 3.15097082 87.13649213 C3.1196016 103.75774248 3.06682385 120.37885359 3 137 C1.68 136.67 0.36 136.34 -1 136 C-0.67 91.12 -0.34 46.24 0 0 Z " fill="#A183A8" transform="translate(439,48)"/>
<path d="M0 0 C1.27685165 0.00222061 2.55370331 0.00444122 3.86924744 0.00672913 C4.57165054 0.0065831 5.27405365 0.00643707 5.9977417 0.00628662 C8.32985983 0.00698579 10.66189904 0.01477835 12.9940033 0.02259827 C14.60683142 0.02446243 16.21966012 0.02588634 17.83248901 0.02688599 C22.08550062 0.03071129 26.33847828 0.04054167 30.59147644 0.05158997 C34.92812135 0.06180383 39.26477171 0.06638355 43.60142517 0.07142639 C52.11641474 0.08216393 60.63137667 0.09924049 69.14634705 0.12025452 C69.14634705 0.45025452 69.14634705 0.78025452 69.14634705 1.12025452 C46.70634705 1.12025452 24.26634705 1.12025452 1.14634705 1.12025452 C0.81634705 2.77025452 0.48634705 4.42025452 0.14634705 6.12025452 C-0.84365295 5.79025452 -1.83365295 5.46025452 -2.85365295 5.12025452 C-2.52365295 4.13025452 -2.19365295 3.14025452 -1.85365295 2.12025452 C-2.51365295 1.79025452 -3.17365295 1.46025452 -3.85365295 1.12025452 C-2.85365295 0.12025452 -2.85365295 0.12025452 0 0 Z " fill="#469F97" transform="translate(203.85365295410156,135.87974548339844)"/>
<path d="M0 0 C4.12751449 0.60698743 7.3321148 2.03810791 11 4 C11 4.66 11 5.32 11 6 C11.57234375 6.28617188 12.1446875 6.57234375 12.734375 6.8671875 C17.8671875 9.43359375 17.8671875 9.43359375 23 12 C22.67 12.99 22.34 13.98 22 15 C17.69087178 13.50187318 14.14079413 11.23307366 10.4375 8.625 C9.87353516 8.23828125 9.30957031 7.8515625 8.72851562 7.453125 C5.51194471 5.21093054 2.67599004 2.86573017 0 0 Z " fill="#A281AA" transform="translate(343,130)"/>
<path d="M0 0 C5.75 -0.125 5.75 -0.125 8 1 C8 1.66 8 2.32 8 3 C10.33214148 4.20628008 12.49642139 5.1654738 15 6 C16.6875 9.0625 16.6875 9.0625 18 12 C13.58883965 10.4797696 9.97050368 8.10711129 6.1875 5.4375 C5.2912793 4.8197168 5.2912793 4.8197168 4.37695312 4.18945312 C2.8968441 3.15591414 1.44546837 2.08145584 0 1 C0 0.67 0 0.34 0 0 Z " fill="#94679B" transform="translate(110,200)"/>
<path d="M0 0 C0.53109375 0.24363281 1.0621875 0.48726563 1.609375 0.73828125 C-0.040625 2.71828125 -1.690625 4.69828125 -3.390625 6.73828125 C-4.710625 6.40828125 -6.030625 6.07828125 -7.390625 5.73828125 C-7.720625 6.72828125 -8.050625 7.71828125 -8.390625 8.73828125 C-10.370625 9.06828125 -12.350625 9.39828125 -14.390625 9.73828125 C-14.390625 9.07828125 -14.390625 8.41828125 -14.390625 7.73828125 C-11.90625 5.7578125 -11.90625 5.7578125 -8.640625 3.55078125 C-7.57328125 2.81472656 -6.5059375 2.07867187 -5.40625 1.3203125 C-2.390625 -0.26171875 -2.390625 -0.26171875 0 0 Z " fill="#4CB2A7" transform="translate(363.390625,356.26171875)"/>
<path d="M0 0 C1.77155654 0.11429397 3.54226229 0.24183037 5.3125 0.375 C6.79169922 0.47941406 6.79169922 0.47941406 8.30078125 0.5859375 C11 1 11 1 14 3 C13.34 4.65 12.68 6.3 12 8 C8.66666667 6.33333333 5.33333333 4.66666667 2 3 C2 2.34 2 1.68 2 1 C1.34 0.67 0.68 0.34 0 0 Z " fill="#916B98" transform="translate(194,256)"/>
<path d="M0 0 C1.3303125 0.4021875 1.3303125 0.4021875 2.6875 0.8125 C-1.55990335 4.26351522 -5.92355071 7.54529209 -10.3125 10.8125 C-10.9725 10.4825 -11.6325 10.1525 -12.3125 9.8125 C-11.6525 8.8225 -10.9925 7.8325 -10.3125 6.8125 C-9.6525 6.8125 -8.9925 6.8125 -8.3125 6.8125 C-8.3125 6.1525 -8.3125 5.4925 -8.3125 4.8125 C-4.31417997 -0.24419887 -4.31417997 -0.24419887 0 0 Z " fill="#5CB5A9" transform="translate(287.3125,466.1875)"/>
<path d="M0 0 C0.99 0.66 1.98 1.32 3 2 C3 2.66 3 3.32 3 4 C4.65 4.33 6.3 4.66 8 5 C7.67 6.32 7.34 7.64 7 9 C2.56541027 7.6062718 0.12621626 5.39417765 -3 2 C-2.01 1.34 -1.02 0.68 0 0 Z " fill="#53B2A8" transform="translate(69,376)"/>
<path d="M0 0 C3.63 1.98 7.26 3.96 11 6 C11 6.99 11 7.98 11 9 C8.125 9.125 8.125 9.125 5 9 C4.34 8.34 3.68 7.68 3 7 C3 6.34 3 5.68 3 5 C2.01 4.34 1.02 3.68 0 3 C0 2.01 0 1.02 0 0 Z " fill="#8B6095" transform="translate(245,229)"/>
<path d="M0 0 C4.455 0.99 4.455 0.99 9 2 C9 2.99 9 3.98 9 5 C10.65 5.33 12.3 5.66 14 6 C14.33 7.65 14.66 9.3 15 11 C13.2458877 9.92333797 11.49687413 8.83836661 9.75 7.75 C8.77546875 7.14671875 7.8009375 6.5434375 6.796875 5.921875 C4.20294755 4.13945558 2.13622381 2.29898372 0 0 Z " fill="#59B2A9" transform="translate(232,169)"/>
<path d="M0 0 C2.46800047 1.15173355 4.04783565 2.04783565 6 4 C5.1875 5.9375 5.1875 5.9375 4 8 C3.01 8.33 2.02 8.66 1 9 C0.01 8.01 -0.98 7.02 -2 6 C-1.34 4.02 -0.68 2.04 0 0 Z " fill="#3BB3A4" transform="translate(194,302)"/>
<path d="M0 0 C4.49989977 0.08211496 6.78708423 1.60466739 10.25 4.375 C9.26 5.035 8.27 5.695 7.25 6.375 C6.92 5.385 6.59 4.395 6.25 3.375 C2.95 3.375 -0.35 3.375 -3.75 3.375 C-4.08 4.695 -4.41 6.015 -4.75 7.375 C-5.375 5 -5.375 5 -5.75 2.375 C-3.75 0.375 -3.75 0.375 0 0 Z " fill="#64B8AF" transform="translate(52.75,208.625)"/>
<path d="M0 0 C0.66 0 1.32 0 2 0 C2.66 2.31 3.32 4.62 4 7 C3.01 7.495 3.01 7.495 2 8 C-0.97 6.02 -3.94 4.04 -7 2 C-5.68 1.67 -4.36 1.34 -3 1 C-3 1.66 -3 2.32 -3 3 C-2.34 3 -1.68 3 -1 3 C-0.67 2.01 -0.34 1.02 0 0 Z " fill="#4AAFA6" transform="translate(379,262)"/>
<path d="M0 0 C4 0 4 0 5.4375 1.375 C5.953125 1.91125 6.46875 2.4475 7 3 C9.59915538 4.19027984 9.59915538 4.19027984 12 5 C12 6.32 12 7.64 12 9 C7.50985376 7.50328459 3.52151236 5.16631659 0 2 C0 1.34 0 0.68 0 0 Z " fill="#61B7AC" transform="translate(178,352)"/>
<path d="M0 0 C3.71888239 0.50712033 6.73454239 1.11608215 10 3 C10 3.66 10 4.32 10 5 C10.99 5 11.98 5 13 5 C13.33 6.32 13.66 7.64 14 9 C10.40241608 7.67726488 7.36262865 6.0805802 4.1875 3.9375 C3.39730469 3.41027344 2.60710937 2.88304687 1.79296875 2.33984375 C1.20128906 1.89769531 0.60960937 1.45554687 0 1 C0 0.67 0 0.34 0 0 Z " fill="#56B0A6" transform="translate(163,343)"/>
<path d="M0 0 C0.99 0 1.98 0 3 0 C2.00449135 2.6245228 1.06036546 3.95028727 -1.125 5.75 C-4.98275174 7.42728337 -7.81513202 7.2127899 -12 7 C-12 6.34 -12 5.68 -12 5 C-9.69 5 -7.38 5 -5 5 C-5 4.34 -5 3.68 -5 3 C-4.360625 2.87625 -3.72125 2.7525 -3.0625 2.625 C-2.381875 2.41875 -1.70125 2.2125 -1 2 C-0.67 1.34 -0.34 0.68 0 0 Z " fill="#8A6793" transform="translate(330,333)"/>
<path d="M0 0 C0.66 0.33 1.32 0.66 2 1 C2 2.65 2 4.3 2 6 C2.66 6.33 3.32 6.66 4 7 C3.67 7.99 3.34 8.98 3 10 C0.69 8.35 -1.62 6.7 -4 5 C-3.67 3.68 -3.34 2.36 -3 1 C-2.01 0.67 -1.02 0.34 0 0 Z " fill="#46ADA3" transform="translate(361,249)"/>
<path d="M0 0 C3.3 1.98 6.6 3.96 10 6 C9.34 7.32 8.68 8.64 8 10 C5.375 10.75 5.375 10.75 3 11 C3.33 8.69 3.66 6.38 4 4 C3.01 4 2.02 4 1 4 C0.67 2.68 0.34 1.36 0 0 Z " fill="#5EBBB1" transform="translate(374,203)"/>
<path d="M0 0 C9.12 0.76 9.12 0.76 12 4 C12 5.32 12 6.64 12 8 C7.44328408 6.48109469 3.68276708 4.04597738 0 1 C0 0.67 0 0.34 0 0 Z " fill="#92699E" transform="translate(55,163)"/>
<path d="M0 0 C3.5875213 1.33250791 6.8364623 2.830717 10 5 C10 5.66 10 6.32 10 7 C10.66 7.33 11.32 7.66 12 8 C7.21760558 8 5.70642288 6.90067878 2 4 C0.625 1.75 0.625 1.75 0 0 Z " fill="#60B6AC" transform="translate(174,449)"/>
<path d="M0 0 C2.97 0 5.94 0 9 0 C9 2 9 4 9 6 C5.06326356 4.68775452 2.77280706 3.08089673 0 0 Z " fill="#4AB3A6" transform="translate(205,371)"/>
<path d="M0 0 C0.66 0.33 1.32 0.66 2 1 C1.9119171 6.28497409 1.9119171 6.28497409 1 9 C-1.22381076 10.94583442 -3.24745652 11.79889012 -6 13 C-6 12.34 -6 11.68 -6 11 C-5.34 11 -4.68 11 -4 11 C-3.896875 10.360625 -3.79375 9.72125 -3.6875 9.0625 C-3.460625 8.381875 -3.23375 7.70125 -3 7 C-2.01 6.67 -1.02 6.34 0 6 C0 4.02 0 2.04 0 0 Z " fill="#57B5A8" transform="translate(281,361)"/>
<path d="M0 0 C4.67105792 1.55701931 8.08705685 4.08447373 12 7 C10.68 7.33 9.36 7.66 8 8 C7.67 7.34 7.34 6.68 7 6 C6.195625 5.896875 5.39125 5.79375 4.5625 5.6875 C3.716875 5.460625 2.87125 5.23375 2 5 C0.6875 2.4375 0.6875 2.4375 0 0 Z " fill="#5FB8AC" transform="translate(137,366)"/>
<path d="M0 0 C0.66 0.33 1.32 0.66 2 1 C0.25 4.875 0.25 4.875 -2 6 C-3.99960012 6.039992 -6.00047242 6.04346799 -8 6 C-7 3 -7 3 -3.5625 1.25 C-2.386875 0.8375 -1.21125 0.425 0 0 Z " fill="#8B6B92" transform="translate(439,184)"/>
<path d="M0 0 C8.30150517 1.32267168 8.30150517 1.32267168 11.0625 4 C12 6 12 6 12 8 C7.44328408 6.48109469 3.68276708 4.04597738 0 1 C0 0.67 0 0.34 0 0 Z " fill="#57B2A6" transform="translate(220,161)"/>
<path d="M0 0 C2.64 1.65 5.28 3.3 8 5 C7.34 5.66 6.68 6.32 6 7 C6 6.34 6 5.68 6 5 C4.35 6.32 2.7 7.64 1 9 C0.08941469 5.92677456 -0.08886184 3.19902639 0 0 Z " fill="#996DA3" transform="translate(297,263)"/>
<path d="M0 0 C4 0 4 0 6.625 2.375 C7.40875 3.24125 8.1925 4.1075 9 5 C9.66 5.66 10.32 6.32 11 7 C10.01 7.33 9.02 7.66 8 8 C7.34 7.67 6.68 7.34 6 7 C6 6.34 6 5.68 6 5 C5.195625 4.731875 4.39125 4.46375 3.5625 4.1875 C2.716875 3.795625 1.87125 3.40375 1 3 C0.67 2.01 0.34 1.02 0 0 Z " fill="#926D9B" transform="translate(184,248)"/>
<path d="M0 0 C0 3 0 6 0 9 C-1.32 9.33 -2.64 9.66 -4 10 C-5 7 -5 7 -4.0625 4.8125 C-3.711875 4.214375 -3.36125 3.61625 -3 3 C-3.66 2.67 -4.32 2.34 -5 2 C-2 0 -2 0 0 0 Z " fill="#43B3A8" transform="translate(349,366)"/>
<path d="M0 0 C3.63 2.31 7.26 4.62 11 7 C10.34 7.66 9.68 8.32 9 9 C7.02 8.01 5.04 7.02 3 6 C3 5.34 3 4.68 3 4 C2.01 4 1.02 4 0 4 C0 2.68 0 1.36 0 0 Z " fill="#9871A0" transform="translate(336,289)"/>
<path d="M0 0 C4.10958767 1.45044271 7.43258745 3.51110752 11 6 C7.94736336 6.98120464 6.05263664 6.98120464 3 6 C3 5.01 3 4.02 3 3 C2.01 3 1.02 3 0 3 C0 2.01 0 1.02 0 0 Z " fill="#9B74A3" transform="translate(188,191)"/>
<path d="M0 0 C1.44098611 0.76429661 2.87766054 1.53672555 4.3125 2.3125 C5.11300781 2.74175781 5.91351563 3.17101562 6.73828125 3.61328125 C8.83787272 4.90059554 10.35447721 6.18406708 12 8 C10.68 8.33 9.36 8.66 8 9 C8 8.34 8 7.68 8 7 C7.01 7 6.02 7 5 7 C5 6.34 5 5.68 5 5 C4.01 4.67 3.02 4.34 2 4 C2 3.34 2 2.68 2 2 C1.34 2 0.68 2 0 2 C0 1.34 0 0.68 0 0 Z " fill="#60BBAE" transform="translate(139,265)"/>
<path d="M0 0 C0 0.66 0 1.32 0 2 C-1.8984375 3.5078125 -1.8984375 3.5078125 -4.375 5.125 C-5.59316406 5.93324219 -5.59316406 5.93324219 -6.8359375 6.7578125 C-9 8 -9 8 -11 8 C-11 7.34 -11 6.68 -11 6 C-10.34 6 -9.68 6 -9 6 C-8.67 5.01 -8.34 4.02 -8 3 C-7.01 3 -6.02 3 -5 3 C-5 2.34 -5 1.68 -5 1 C-2 0 -2 0 0 0 Z " fill="#56AEA4" transform="translate(405,387)"/>
<path d="M0 0 C1.98 0.99 3.96 1.98 6 3 C5.01 3.33 4.02 3.66 3 4 C3 4.99 3 5.98 3 7 C1.68 6.67 0.36 6.34 -1 6 C-0.67 5.01 -0.34 4.02 0 3 C-0.66 2.67 -1.32 2.34 -2 2 C-1.34 2 -0.68 2 0 2 C0 1.34 0 0.68 0 0 Z " fill="#4CB6A9" transform="translate(106,345)"/>
<path d="M0 0 C2.97 1.65 5.94 3.3 9 5 C9 5.99 9 6.98 9 8 C8.67 7.34 8.34 6.68 8 6 C6.35 6.33 4.7 6.66 3 7 C2.67 5.35 2.34 3.7 2 2 C1.34 2 0.68 2 0 2 C0 1.34 0 0.68 0 0 Z " fill="#4DB4A5" transform="translate(406,225)"/>
<path d="M0 0 C6.14587738 0.1205074 6.14587738 0.1205074 8.578125 2.625 C9.80796624 4.37787717 10.94469135 6.13740456 12 8 C7.44328408 6.48109469 3.68276708 4.04597738 0 1 C0 0.67 0 0.34 0 0 Z " fill="#57B1A9" transform="translate(290,208)"/>
<path d="M0 0 C1.670625 0.061875 1.670625 0.061875 3.375 0.125 C-1.25 5 -1.25 5 -4.625 6.125 C-5.25 4.25 -5.25 4.25 -5.625 2.125 C-3.625 0.125 -3.625 0.125 0 0 Z " fill="#51B1A5" transform="translate(298.625,457.875)"/>
<path d="M0 0 C2.31 0.33 4.62 0.66 7 1 C7 1.66 7 2.32 7 3 C8.32 3.33 9.64 3.66 11 4 C11 4.66 11 5.32 11 6 C6.25 5.125 6.25 5.125 4 4 C4 3.34 4 2.68 4 2 C2.68 1.34 1.36 0.68 0 0 Z " fill="#5CB7AD" transform="translate(161,442)"/>
<path d="M0 0 C0.33 0 0.66 0 1 0 C1.06058594 1.19238281 1.12117188 2.38476562 1.18359375 3.61328125 C1.26801149 5.17969925 1.35265887 6.74610488 1.4375 8.3125 C1.47681641 9.09818359 1.51613281 9.88386719 1.55664062 10.69335938 C1.59853516 11.45068359 1.64042969 12.20800781 1.68359375 12.98828125 C1.73858032 14.03302612 1.73858032 14.03302612 1.79467773 15.09887695 C1.95581153 17.2216572 1.95581153 17.2216572 3 20 C2.01 20.33 1.02 20.66 0 21 C0 14.07 0 7.14 0 0 Z " fill="#3BA194" transform="translate(47,344)"/>
<path d="M0 0 C3 1 3 1 4 3 C1.36 4.65 -1.28 6.3 -4 8 C-3.67 6.68 -3.34 5.36 -3 4 C-2.34 4 -1.68 4 -1 4 C-0.67 2.68 -0.34 1.36 0 0 Z " fill="#5BB4AA" transform="translate(427,368)"/>
<path d="M0 0 C0 0.66 0 1.32 0 2 C1.65 1.67 3.3 1.34 5 1 C4.67 1.99 4.34 2.98 4 4 C1.75 4.75 1.75 4.75 -1 5 C-3.3125 3.0625 -3.3125 3.0625 -5 1 C-3 0 -3 0 0 0 Z " fill="#91649A" transform="translate(250,289)"/>
<path d="M0 0 C1.46313772 0.76167457 2.92036661 1.53470707 4.375 2.3125 C5.18710938 2.74175781 5.99921875 3.17101562 6.8359375 3.61328125 C9 5 9 5 11 8 C8.03 7.505 8.03 7.505 5 7 C5 6.34 5 5.68 5 5 C4.01 4.67 3.02 4.34 2 4 C2 3.34 2 2.68 2 2 C1.34 2 0.68 2 0 2 C0 1.34 0 0.68 0 0 Z " fill="#6BBBB3" transform="translate(157,277)"/>
<path d="M0 0 C4.43090471 1.20842856 6.98112756 2.51668565 10 6 C3.52443609 5.38909774 3.52443609 5.38909774 1.0625 3.5625 C0 2 0 2 0 0 Z " fill="#916B9B" transform="translate(311,274)"/>
<path d="M0 0 C2.97 0.33 5.94 0.66 9 1 C8.67 1.66 8.34 2.32 8 3 C7.34 3 6.68 3 6 3 C6.33 3.99 6.66 4.98 7 6 C4.625 5.25 4.625 5.25 2 4 C1.34 2.68 0.68 1.36 0 0 Z " fill="#69BDB4" transform="translate(215,477)"/>
<path d="M0 0 C-4.95 2.97 -4.95 2.97 -10 6 C-9.67 4.35 -9.34 2.7 -9 1 C-5.35559672 -1.16694249 -4.23509757 -1.05877439 0 0 Z " fill="#61B8AE" transform="translate(354,424)"/>
<path d="M0 0 C2.31 0 4.62 0 7 0 C7.33 1.32 7.66 2.64 8 4 C9.65 4.33 11.3 4.66 13 5 C13 5.33 13 5.66 13 6 C7.77895216 6.63671315 5.32292214 5.23234994 1.3203125 2.19140625 C0.88460937 1.79824219 0.44890625 1.40507812 0 1 C0 0.67 0 0.34 0 0 Z " fill="#69B8B2" transform="translate(232,389)"/>
<path d="M0 0 C1.98 0 3.96 0 6 0 C6.0825 0.61875 6.165 1.2375 6.25 1.875 C6.81258459 4.18437567 6.81258459 4.18437567 9.0625 5.25 C9.701875 5.4975 10.34125 5.745 11 6 C10.01 6.495 10.01 6.495 9 7 C7.4972763 6.02501855 5.99788037 5.04490611 4.5 4.0625 C3.6646875 3.51722656 2.829375 2.97195313 1.96875 2.41015625 C1.3190625 1.94480469 0.669375 1.47945313 0 1 C0 0.67 0 0.34 0 0 Z " fill="#58B4A5" transform="translate(217,379)"/>
<path d="M0 0 C0.82638376 2.89234315 1 4.88742431 1 8 C-0.98 7.34 -2.96 6.68 -5 6 C-4.34 5.01 -3.68 4.02 -3 3 C-2.34 3 -1.68 3 -1 3 C-0.67 2.01 -0.34 1.02 0 0 Z " fill="#4DB4A5" transform="translate(391,334)"/>
<path d="M0 0 C2.75 -0.3125 2.75 -0.3125 6 0 C8.375 2.5 8.375 2.5 10 5 C9.01 5.495 9.01 5.495 8 6 C6.0546875 5.0390625 6.0546875 5.0390625 3.875 3.625 C3.15054688 3.16351563 2.42609375 2.70203125 1.6796875 2.2265625 C1.12539062 1.82179687 0.57109375 1.41703125 0 1 C0 0.67 0 0.34 0 0 Z " fill="#8E6996" transform="translate(161,234)"/>
<path d="M0 0 C-2.77280706 3.08089673 -5.06326356 4.68775452 -9 6 C-7.01260984 0.46369883 -5.82303895 -0.15323787 0 0 Z " fill="#63BBB2" transform="translate(257,489)"/>
<path d="M0 0 C4.43458973 1.3937282 6.87378374 3.60582235 10 7 C7.0625 6.625 7.0625 6.625 4 6 C3.67 5.34 3.34 4.68 3 4 C2.01 3.67 1.02 3.34 0 3 C0 2.01 0 1.02 0 0 Z " fill="#65B9AE" transform="translate(176,392)"/>
<path d="M0 0 C1.48280196 0.78483659 2.9611498 1.57809334 4.4375 2.375 C5.67306641 3.03628906 5.67306641 3.03628906 6.93359375 3.7109375 C9 5 9 5 10 7 C8.906875 6.67 7.81375 6.34 6.6875 6 C3.15421116 4.86913351 3.15421116 4.86913351 0 5 C0 3.35 0 1.7 0 0 Z " fill="#6DBEB5" transform="translate(220,319)"/>
<path d="M0 0 C2 2 2 2 2 5 C2.3062434 6.33981486 2.63451555 7.67511887 3 9 C0.5 7.6875 0.5 7.6875 -2 6 C-2 5.01 -2 4.02 -2 3 C-1.34 2.67 -0.68 2.34 0 2 C0 1.34 0 0.68 0 0 Z " fill="#8A5E95" transform="translate(50,153)"/>
<path d="M0 0 C1.32 0.33 2.64 0.66 4 1 C1.31158141 3.25245881 -0.64641875 4.88213958 -4 6 C-4.33 5.01 -4.66 4.02 -5 3 C-3.35 2.67 -1.7 2.34 0 2 C0 1.34 0 0.68 0 0 Z " fill="#60B8B1" transform="translate(321,442)"/>
<path d="M0 0 C3.02419525 0.58803797 6.01758453 1.22678118 9 2 C9 3.32 9 4.64 9 6 C8.34 6 7.68 6 7 6 C7 5.34 7 4.68 7 4 C6.030625 3.71125 5.06125 3.4225 4.0625 3.125 C1 2 1 2 0 0 Z " fill="#63B6AA" transform="translate(91,395)"/>
<path d="M0 0 C0.66 0.33 1.32 0.66 2 1 C1.375 2.9375 1.375 2.9375 0 5 C-3.125 5.75 -3.125 5.75 -6 6 C-6 5.34 -6 4.68 -6 4 C-4.03852126 2.61061923 -2.03833424 1.2739589 0 0 Z " fill="#74C0B9" transform="translate(355,360)"/>
<path d="M0 0 C0.99 0.33 1.98 0.66 3 1 C-0.19668988 3.6486859 -3.39486597 5.93992341 -7 8 C-7 5 -7 5 -5 3 C-3.68 3 -2.36 3 -1 3 C-0.67 2.01 -0.34 1.02 0 0 Z " fill="#A787AE" transform="translate(347,322)"/>
<path d="M0 0 C1.48280196 0.78483659 2.9611498 1.57809334 4.4375 2.375 C5.67306641 3.03628906 5.67306641 3.03628906 6.93359375 3.7109375 C9 5 9 5 10 7 C7.03 6.505 7.03 6.505 4 6 C4 5.34 4 4.68 4 4 C3.01 4 2.02 4 1 4 C0.67 2.68 0.34 1.36 0 0 Z " fill="#73BFB6" transform="translate(396,218)"/>
<path d="M0 0 C3.465 1.98 3.465 1.98 7 4 C7 4.33 7 4.66 7 5 C1.58461538 5.36923077 1.58461538 5.36923077 -1.375 3.5 C-1.91125 3.005 -2.4475 2.51 -3 2 C-2.01 2 -1.02 2 0 2 C0 1.34 0 0.68 0 0 Z " fill="#9C75A4" transform="translate(207,203)"/>
<path d="M0 0 C0.33 0 0.66 0 1 0 C1.144375 1.0725 1.28875 2.145 1.4375 3.25 C1.83749442 5.91662949 2.27591924 8.41399729 3 11 C2.34 11 1.68 11 1 11 C-1.30441554 7.54337669 -1.25860135 6.05142119 -1 2 C-0.67 1.34 -0.34 0.68 0 0 Z " fill="#6EB5AE" transform="translate(199,138)"/>
<path d="M0 0 C2.97 0.33 5.94 0.66 9 1 C8.67 2.65 8.34 4.3 8 6 C6.66402348 5.19185349 5.331275 4.37836819 4 3.5625 C3.2575 3.11003906 2.515 2.65757813 1.75 2.19140625 C1.1725 1.79824219 0.595 1.40507813 0 1 C0 0.67 0 0.34 0 0 Z " fill="#946AA3" transform="translate(328,120)"/>
<path d="M0 0 C0.4125 0.45375 0.825 0.9075 1.25 1.375 C3.06408095 3.05950374 4.75285627 3.99265971 7 5 C5.375 5.75 5.375 5.75 3 6 C-0.25 4.0625 -0.25 4.0625 -3 2 C-2.01 1.34 -1.02 0.68 0 0 Z " fill="#69B7AE" transform="translate(236,489)"/>
<path d="M0 0 C2.88395737 1.44197868 4.76525152 3.70644235 7 6 C6.01 6.495 6.01 6.495 5 7 C2.69 5.35 0.38 3.7 -2 2 C-1.34 1.34 -0.68 0.68 0 0 Z " fill="#77C1BA" transform="translate(120,412)"/>
<path d="M0 0 C-2.3125 2.0625 -2.3125 2.0625 -5 4 C-5.99 3.67 -6.98 3.34 -8 3 C-7.34 3 -6.68 3 -6 3 C-6 2.34 -6 1.68 -6 1 C-6.66 0.67 -7.32 0.34 -8 0 C-5.13822943 -1.43088528 -3.06624227 -0.59991697 0 0 Z " fill="#4FADA3" transform="translate(392,397)"/>
<path d="M0 0 C-0.33 1.98 -0.66 3.96 -1 6 C-5.875 4.25 -5.875 4.25 -7 2 C-2.25 0 -2.25 0 0 0 Z " fill="#986DA3" transform="translate(135,210)"/>
<path d="M0 0 C1.32 0 2.64 0 4 0 C4 0.66 4 1.32 4 2 C5.32 2.33 6.64 2.66 8 3 C6.02 3.99 6.02 3.99 4 5 C2 3.625 2 3.625 0 2 C0 1.34 0 0.68 0 0 Z " fill="#8D6896" transform="translate(416,178)"/>
<path d="M0 0 C3.93673644 1.31224548 6.22719294 2.91910327 9 6 C6.69 5.67 4.38 5.34 2 5 C1.34 3.35 0.68 1.7 0 0 Z " fill="#A489AA" transform="translate(133,154)"/>
<path d="M0 0 C4.455 0.99 4.455 0.99 9 2 C9 3.32 9 4.64 9 6 C5.06326356 4.68775452 2.77280706 3.08089673 0 0 Z " fill="#A27EA9" transform="translate(371,149)"/>
<path d="M0 0 C0.33 0 0.66 0 1 0 C1 2.31 1 4.62 1 7 C-3.875 5.25 -3.875 5.25 -5 3 C-3.68 3 -2.36 3 -1 3 C-0.67 2.01 -0.34 1.02 0 0 Z " fill="#51B5AB" transform="translate(207,146)"/>
<path d="M0 0 C0.66 0.33 1.32 0.66 2 1 C0.875 3.5 0.875 3.5 -1 6 C-4.1875 6.3125 -4.1875 6.3125 -7 6 C-6.21625 5.38125 -5.4325 4.7625 -4.625 4.125 C-2.03162353 2.10141339 -2.03162353 2.10141339 0 0 Z " fill="#68B7B0" transform="translate(277,414)"/>
<path d="M0 0 C3.3 1.98 6.6 3.96 10 6 C9.01 6.66 8.02 7.32 7 8 C7 7.34 7 6.68 7 6 C6.21625 5.7525 5.4325 5.505 4.625 5.25 C2 4 2 4 0 0 Z " fill="#68BAAD" transform="translate(205,411)"/>
<path d="M0 0 C2.76276177 0.52268466 5.3260876 1.10869587 8 2 C8.6875 4.0625 8.6875 4.0625 9 6 C5.88802644 4.50164236 2.91164984 2.86022073 0 1 C0 0.67 0 0.34 0 0 Z " fill="#A785AB" transform="translate(258,299)"/>
<path d="M0 0 C3.33537489 1.11179163 4.63707344 2.47411298 7 5 C6.67 5.66 6.34 6.32 6 7 C5.01 6.67 4.02 6.34 3 6 C3 5.34 3 4.68 3 4 C0.525 3.01 0.525 3.01 -2 2 C-1.34 1.34 -0.68 0.68 0 0 Z " fill="#90699A" transform="translate(238,283)"/>
<path d="M0 0 C3.51005335 1.6380249 6.45543849 3.03134491 9 6 C3.50847458 5.38983051 3.50847458 5.38983051 1.125 3.5625 C0 2 0 2 0 0 Z " fill="#62B7AF" transform="translate(112,247)"/>
<path d="M0 0 C2.97 0.495 2.97 0.495 6 1 C5.34 2.32 4.68 3.64 4 5 C2.68 4.34 1.36 3.68 0 3 C0 2.01 0 1.02 0 0 Z " fill="#8B5C96" transform="translate(211,208)"/>
<path d="M0 0 C2.375 0.1875 2.375 0.1875 5 1 C6.3125 3.5625 6.3125 3.5625 7 6 C2.32307692 4.52307692 2.32307692 4.52307692 0.6875 1.875 C0.460625 1.25625 0.23375 0.6375 0 0 Z " fill="#916B9A" transform="translate(81,179)"/>
<path d="M0 0 C2.9719385 1.12451727 5.33440687 2.22293791 8 4 C7.67 4.66 7.34 5.32 7 6 C2.32307692 4.52307692 2.32307692 4.52307692 0.6875 1.875 C0.460625 1.25625 0.23375 0.6375 0 0 Z " fill="#97719F" transform="translate(358,139)"/>
<path d="M0 0 C1.4540625 0.0309375 1.4540625 0.0309375 2.9375 0.0625 C1.9475 0.5575 1.9475 0.5575 0.9375 1.0625 C0.28194881 3.58983235 0.28194881 3.58983235 -0.0625 6.0625 C-1.0525 5.7325 -2.0425 5.4025 -3.0625 5.0625 C-2.7325 4.0725 -2.4025 3.0825 -2.0625 2.0625 C-2.7225 1.7325 -3.3825 1.4025 -4.0625 1.0625 C-3.0625 0.0625 -3.0625 0.0625 0 0 Z " fill="#52B7AE" transform="translate(204.0625,135.9375)"/>
<path d="M0 0 C0.66 0.33 1.32 0.66 2 1 C1.34 2.65 0.68 4.3 0 6 C-1.65 5.67 -3.3 5.34 -5 5 C-3.35 3.35 -1.7 1.7 0 0 Z " fill="#68BAB1" transform="translate(310,391)"/>
<path d="M0 0 C3.93673644 1.31224548 6.22719294 2.91910327 9 6 C5.21213403 5.4739075 2.82847776 4.61896089 0 2 C0 1.34 0 0.68 0 0 Z " fill="#74BFB7" transform="translate(334,177)"/>
<path d="M0 0 C0.33 0.66 0.66 1.32 1 2 C2.32 1.67 3.64 1.34 5 1 C4.67 1.99 4.34 2.98 4 4 C4.33 4.66 4.66 5.32 5 6 C0.25 4.125 0.25 4.125 -2 3 C-2 2.34 -2 1.68 -2 1 C-1.34 0.67 -0.68 0.34 0 0 Z " fill="#9972A5" transform="translate(290,92)"/>
<path d="M0 0 C2.97 1.65 5.94 3.3 9 5 C7.68 5.33 6.36 5.66 5 6 C4.01 5.34 3.02 4.68 2 4 C2 3.34 2 2.68 2 2 C1.34 2 0.68 2 0 2 C0 1.34 0 0.68 0 0 Z " fill="#6EBFB7" transform="translate(157,379)"/>
<path d="M0 0 C1.2065625 0.0309375 1.2065625 0.0309375 2.4375 0.0625 C-0.25091859 2.31495881 -2.20891875 3.94463958 -5.5625 5.0625 C-3.15007962 0.07683121 -3.15007962 0.07683121 0 0 Z " fill="#73B9B3" transform="translate(414.5625,379.9375)"/>
<path d="M0 0 C2.64 1.65 5.28 3.3 8 5 C5 6 5 6 3 6 C3 5.34 3 4.68 3 4 C2.34 4 1.68 4 1 4 C0.67 2.68 0.34 1.36 0 0 Z " fill="#7BC7C1" transform="translate(255,342)"/>
<path d="M0 0 C0.99 0.66 1.98 1.32 3 2 C2.34 3.65 1.68 5.3 1 7 C0.01 6.67 -0.98 6.34 -2 6 C-1.34 4.02 -0.68 2.04 0 0 Z " fill="#905C9C" transform="translate(205,257)"/>
<path d="M0 0 C6.875 3.75 6.875 3.75 8 6 C5.07120629 5.37240135 2.63904371 4.41377341 0 3 C0 2.01 0 1.02 0 0 Z " fill="#61B9AE" transform="translate(75,222)"/>
<path d="M0 0 C0.99 0 1.98 0 3 0 C1.86695008 3.39914975 0.87481525 4.05254451 -2 6 C-2.66 5.67 -3.32 5.34 -4 5 C-3.34 4.01 -2.68 3.02 -2 2 C-1.34 2 -0.68 2 0 2 C0 1.34 0 0.68 0 0 Z " fill="#71BCB5" transform="translate(279,471)"/>
<path d="M0 0 C0.33 0.99 0.66 1.98 1 3 C-2 5 -2 5 -4.1875 4.625 C-4.785625 4.41875 -5.38375 4.2125 -6 4 C-4.02 2.68 -2.04 1.36 0 0 Z " fill="#74BEB9" transform="translate(334,375)"/>
<path d="M0 0 C0.99 0.66 1.98 1.32 3 2 C3 2.66 3 3.32 3 4 C0.625 4.625 0.625 4.625 -2 5 C-2.66 4.34 -3.32 3.68 -4 3 C-2.68 2.01 -1.36 1.02 0 0 Z " fill="#895497" transform="translate(298,320)"/>
<path d="M0 0 C0.99 0.495 0.99 0.495 2 1 C2.75 3.875 2.75 3.875 3 7 C2.34 7.99 1.68 8.98 1 10 C0.67 6.7 0.34 3.4 0 0 Z " fill="#AC8CAF" transform="translate(360,305)"/>
<path d="M0 0 C1.65 0 3.3 0 5 0 C5 0.66 5 1.32 5 2 C5.66 2 6.32 2 7 2 C6.67 2.99 6.34 3.98 6 5 C3.98079663 3.69593116 1.98075027 2.36176581 0 1 C0 0.67 0 0.34 0 0 Z " fill="#9976A1" transform="translate(251,294)"/>
<path d="M0 0 C2.64 1.65 5.28 3.3 8 5 C6 6 6 6 3.4375 5.3125 C2.633125 4.879375 1.82875 4.44625 1 4 C0.67 2.68 0.34 1.36 0 0 Z " fill="#5FB8AC" transform="translate(417,232)"/>
<path d="M0 0 C0.66 0 1.32 0 2 0 C2.99 1.98 3.98 3.96 5 6 C2.525 5.01 2.525 5.01 0 4 C0 2.68 0 1.36 0 0 Z " fill="#9F7CA8" transform="translate(123,206)"/>
<path d="M0 0 C2.125 0.9375 2.125 0.9375 4 2 C4 2.99 4 3.98 4 5 C1.53199953 3.84826645 -0.04783565 2.95216435 -2 1 C-1.34 0.67 -0.68 0.34 0 0 Z " fill="#986DA2" transform="translate(118,203)"/>
<path d="M0 0 C0.99 0.33 1.98 0.66 3 1 C2.67 1.99 2.34 2.98 2 4 C1.01 3.67 0.02 3.34 -1 3 C-0.67 2.01 -0.34 1.02 0 0 Z M-2 4 C-1.34 4 -0.68 4 0 4 C0 4.99 0 5.98 0 7 C-0.99 7 -1.98 7 -3 7 C-2.67 6.01 -2.34 5.02 -2 4 Z " fill="#40B8AA" transform="translate(355,191)"/>
<path d="M0 0 C1.9375 0.75 1.9375 0.75 4 2 C4.75 4.125 4.75 4.125 5 6 C0.125 4.25 0.125 4.25 -1 2 C-0.67 1.34 -0.34 0.68 0 0 Z " fill="#996EA2" transform="translate(399,165)"/>
<path d="M0 0 C2.64 1.65 5.28 3.3 8 5 C4 6 4 6 1.75 4.75 C1.1725 4.1725 0.595 3.595 0 3 C0 2.01 0 1.02 0 0 Z " fill="#A886B0" transform="translate(113,140)"/>
<path d="M0 0 C3.68754757 0.49831724 5.60490662 1.10067643 8 4 C5.125 3.6875 5.125 3.6875 2 3 C1.34 2.01 0.68 1.02 0 0 Z " fill="#9874A3" transform="translate(343,130)"/>
</svg>
